<?xml version="1.0" encoding="utf-8"?>
<!-- Generator: Adobe Illustrator 16.0.0, SVG Export Plug-In . SVG Version: 6.00 Build 0)  -->
<!DOCTYPE svg PUBLIC "-//W3C//DTD SVG 1.1//EN" "http://www.w3.org/Graphics/SVG/1.1/DTD/svg11.dtd">
<svg version="1.1" id="Layer_1" xmlns="http://www.w3.org/2000/svg" xmlns:xlink="http://www.w3.org/1999/xlink" x="0px" y="0px"
	 width="512px" height="512px" viewBox="2128 0 512 512" enable-background="new 2128 0 512 512" xml:space="preserve">
<g id="Outline">
	<g id="XMLID_1_">
		<path fill="#751B47" d="M158.98,56H49.02c3.67-14.12,16.41-23.98,31-24h47.96C142.57,32.02,155.31,41.88,158.98,56z"/>
		<path fill="#1DA1DB" d="M128,72v104c-0.02,17.67-14.33,31.98-32,32H80.02c-14.59-0.02-27.33-9.88-31-24H88c13.25,0,24-10.75,24-24
			s-10.75-24-24-24h-1.01c-3.67-14.12-16.4-23.98-30.99-24h-8V72H128z"/>
		<path d="M496,480v16H16v-16h75.75c-5.08-10.7-2.89-23.43,5.47-31.82c5.27-5.229,12.39-8.17,19.82-8.18h61.97l11.42-40H88.08
			c-22.09,0-40-17.91-40-40s17.91-40,40-40h113.94l5.57-24H136c-4.42,0-8-3.58-8-8v-24c0.02-13.25,10.75-23.98,24-24h68.59
			l16.93-72.95l-1.87-17.2c-2.3-20.75,5-41.42,19.82-56.13c8.66-8.68,20.39-13.6,32.65-13.71c0.149-0.01,0.3-0.01,0.45-0.01h144.35
			c0.04,0,0.07,0,0.1,0c3.261,0,6.511,0.33,9.7,1c25.34,5.32,41.58,30.18,36.261,55.52l-46.23,219.02
			c-4.5,20.85-20.38,37.38-41.04,42.69L371.27,480H496z M463.98,127.08c0.1-17.06-13.641-30.97-30.7-31.08c-0.12,0.01-0.23,0-0.34,0
			c-8.23-0.01-16.12,3.25-21.95,9.05c-11.36,11.28-16.95,27.13-15.19,43.04l2,18.57c0.07,0.73,0.05,1.46-0.069,2.17l-0.08,0.48
			c-0.03,0.17-0.061,0.34-0.101,0.5L381.2,240h6.8c15.46,0,28,12.54,28,28s-12.54,28-28,28h-19.8l-7.851,33.81
			c-0.84,3.62-4.069,6.19-7.79,6.19H232.16c-13.25,0-24,10.75-24,24s10.75,24,24,24h145.68c18.93-0.05,35.26-13.27,39.26-31.76
			l46.221-219.02C463.75,131.2,463.96,129.15,463.98,127.08z M397.53,96H288.96c-0.12,0.01-0.25,0.01-0.37,0.01
			c-8.189-0.01-16.04,3.25-21.82,9.04c-11.37,11.28-16.979,27.14-15.209,43.07l2.02,18.55c0.09,0.89,0.04,1.8-0.16,2.67
			l-35.58,153.271c4.57-1.73,9.43-2.62,14.32-2.61H346.2l5.569-24H280c-4.42,0-8-3.58-8-8v-24c0.02-13.25,10.75-23.98,24-24h68.77
			l14.91-64H273.02v-16H380.99l-1.101-10.18C377.72,130.17,384.15,110.55,397.53,96z M400,268c0-6.63-5.37-12-12-12h-52
			c-4.42,0-8,3.58-8,8v16h60C394.63,280,400,274.63,400,268z M354.77,480l20-80h-23.72l-14.34,50.2c-0.979,3.43-4.12,5.8-7.69,5.8
			h-68c-6.629,0-12,5.37-12,12s5.37,12,12,12H354.77z M322.98,440l11.43-40h-87.13l-10,40H322.98z M313.38,256H296
			c-4.42,0-8,3.58-8,8v16h24v-16C312,261.27,312.46,258.571,313.38,256z M235.73,456H117.04c-3.21,0.01-6.29,1.29-8.56,3.56
			c-2.2,2.24-3.43,5.25-3.44,8.391c-0.01,6.64,5.36,12.04,12,12.05h118.69C232.12,472.41,232.12,463.59,235.73,456z M220.79,440
			l10-40h-23.72l-11.42,40H220.79z M211.3,280l5.58-24H192c-4.42,0-8,3.58-8,8v16H211.3z M200.05,336H88.08
			c-13.27-0.01-24.04,10.73-24.08,24c0.04,13.27,10.81,24.01,24.08,24h111.97C189.32,369.8,189.32,350.2,200.05,336z M169.38,256
			H152c-4.42,0-8,3.58-8,8v16h24v-16C168,261.27,168.46,258.571,169.38,256z"/>
		<path fill="#C5D700" d="M296,256h17.38c-0.92,2.57-1.38,5.27-1.38,8v16h-24v-16C288,259.58,291.58,256,296,256z"/>
		<path d="M176,64.02v111.96c-0.03,26.51-21.51,47.99-48.02,48.02H80.02c-26.51-0.03-47.99-21.51-48.02-48.02V64.02
			C32.03,37.51,53.51,16.03,80.02,16h47.96C154.49,16.03,175.97,37.51,176,64.02z M160,175.98V72h-16v104
			c0.01,11.7-4.28,22.99-12.04,31.74C147.97,205.72,159.98,192.11,160,175.98z M49.02,56h109.96c-3.67-14.12-16.41-23.98-31-24
			H80.02C65.43,32.02,52.69,41.88,49.02,56z M128,176V72H48v40h8c14.59,0.02,27.32,9.88,30.99,24H88c13.25,0,24,10.75,24,24
			s-10.75,24-24,24H49.02c3.67,14.12,16.41,23.98,31,24H96C113.67,207.98,127.98,193.67,128,176z M96,160c0-4.42-3.58-8-8-8h-8
			c-4.42,0-8-3.58-8-8c-0.01-8.83-7.17-15.99-16-16h-8v40h40C92.42,168,96,164.42,96,160z"/>
		<path fill="#C5D700" d="M152,256h17.38c-0.92,2.57-1.38,5.27-1.38,8v16h-24v-16C144,259.58,147.58,256,152,256z"/>
	</g>
</g>
<g id="XMLID_6_">
	<path d="M3139.47,341.71c0.92,9.67-1.81,19.271-7.68,27.021l-83.2,108.35v25.13c0,5.41-4.38,9.79-9.79,9.79
		c-5.399,0-9.78-4.38-9.78-9.79v-28.45c0-2.16,0.711-4.26,2.021-5.96l85.19-110.939c2.869-3.78,4.21-8.521,3.76-13.311
		L3109.52,233.1c-0.649-6.78-6.27-11.9-13.09-11.9c-7.239,0-13.13,5.9-13.13,13.14v88.28c0,8.479-2.85,16.84-8.01,23.57
		l-20.49,26.68c-0.03,0.04-0.05,0.08-0.09,0.12l-16.52,21.52c-3.29,4.28-9.44,5.09-13.721,1.8c-4.29-3.29-5.09-9.43-1.8-13.72
		l16.58-21.59c3.84-5.09,2.92-12.43-2.08-16.4c-2.51-2-5.65-2.88-8.83-2.489c-3.18,0.399-6.01,2.029-7.95,4.58l-39.51,51.92
		c-7.77,10.21-12.05,22.909-12.05,35.75v67.85c0,5.41-4.38,9.79-9.79,9.79c-5.4,0-9.78-4.38-9.78-9.79v-67.84
		c0-17.101,5.7-34.01,16.05-47.61l39.5-51.92c5.16-6.78,12.66-11.09,21.11-12.14c8.45-1.061,16.771,1.28,23.44,6.58
		c3.12,2.489,5.64,5.46,7.529,8.729l2.88-3.74c2.551-3.329,3.961-7.46,3.961-11.649v-88.28c0-18.03,14.67-32.71,32.699-32.71
		c16.971,0,30.971,12.74,32.57,29.62L3139.47,341.71z"/>
	<path d="M3061.3,48.95v92.8c0,41.62-12.62,81.64-36.5,115.73c-23.88,34.09-57.18,59.63-96.3,73.85c-1.07,0.39-2.21,0.59-3.34,0.59
		s-2.26-0.2-3.34-0.59c-39.12-14.22-72.41-39.76-96.29-73.85c-23.88-34.09-36.5-74.11-36.5-115.73v-92.8
		c0-4.58,3.18-8.55,7.649-9.55l126.351-28.17c1.399-0.31,2.859-0.31,4.26,0l126.35,28.17C3058.11,40.4,3061.3,44.37,3061.3,48.95z
		 M3041.73,141.75V56.79l-116.57-25.98L2808.6,56.79v84.96c0,37.58,11.4,73.72,32.96,104.5c20.87,29.81,49.73,52.38,83.601,65.44
		c33.87-13.061,62.729-35.631,83.609-65.44C3030.33,215.47,3041.73,179.33,3041.73,141.75z"/>
	<path fill="#C5D700" d="M3041.73,56.79v84.96c0,37.58-11.4,73.72-32.961,104.5c-20.88,29.81-49.739,52.38-83.609,65.44
		c-33.87-13.061-62.73-35.631-83.601-65.44c-21.56-30.78-32.96-66.92-32.96-104.5V56.79l116.561-25.98L3041.73,56.79z
		 M3025.08,141.75V77.98c0-4.58-3.18-8.55-7.66-9.55l-90.13-20.09c-1.4-0.31-2.86-0.31-4.26,0l-90.13,20.09
		c-5.28,1.18-8.601,6.41-7.42,11.68c1.17,5.28,6.399,8.6,11.68,7.42l88-19.62l80.35,17.92v55.92c0,30.11-9.13,59.06-26.399,83.73
		c-13.88,19.81-32.471,35.87-53.95,46.66c-21.48-10.79-40.061-26.85-53.94-46.66c-14.939-21.33-23.92-46.27-25.95-72.11
		c-0.17-2.16-0.289-4.33-0.369-6.48c-0.19-5.41-4.74-9.63-10.12-9.45c-5.4,0.19-9.62,4.72-9.44,10.12c0.09,2.44,0.23,4.91,0.42,7.35
		c2.3,29.32,12.48,57.6,29.431,81.8c16.739,23.89,39.51,42.97,65.859,55.17c1.3,0.601,2.71,0.91,4.11,0.91
		c1.41,0,2.81-0.31,4.109-0.91c26.36-12.2,49.131-31.28,65.87-55.17C3014.72,208.74,3025.08,175.9,3025.08,141.75z M2982.26,129.3
		c4.01-3.62,4.32-9.81,0.69-13.82c-3.62-4.01-9.811-4.32-13.82-0.69l-63.439,57.39l-18.101-21.42c-3.49-4.12-9.67-4.64-13.79-1.15
		c-4.13,3.49-4.64,9.66-1.16,13.79l24.641,29.15c1.72,2.02,4.17,3.26,6.819,3.44c0.221,0.01,0.44,0.02,0.66,0.02
		c2.41,0,4.76-0.89,6.561-2.52L2982.26,129.3z M2840.98,120.31c3.09-2.37,4.529-6.52,3.489-10.29c-1.109-4.04-4.72-7.01-8.92-7.24
		c-4.16-0.22-8.09,2.31-9.609,6.18c-1.681,4.25-0.131,9.18,3.649,11.73C2833.04,122.99,2837.7,122.84,2840.98,120.31z"/>
	<path d="M3025.08,77.98v63.77c0,34.15-10.36,66.99-29.94,94.96c-16.739,23.89-39.51,42.97-65.87,55.17
		c-1.3,0.601-2.699,0.91-4.109,0.91c-1.4,0-2.811-0.31-4.11-0.91c-26.35-12.2-49.12-31.28-65.859-55.17
		c-16.95-24.2-27.131-52.48-29.431-81.8c-0.189-2.44-0.33-4.91-0.42-7.35c-0.18-5.4,4.04-9.93,9.44-10.12
		c5.38-0.18,9.93,4.04,10.12,9.45c0.08,2.15,0.199,4.32,0.369,6.48c2.03,25.84,11.011,50.78,25.95,72.11
		c13.88,19.81,32.46,35.87,53.94,46.66c21.479-10.79,40.07-26.85,53.95-46.66c17.27-24.67,26.399-53.62,26.399-83.73V85.83
		l-80.35-17.92l-88,19.62c-5.28,1.18-10.51-2.14-11.68-7.42c-1.181-5.27,2.14-10.5,7.42-11.68l90.13-20.09
		c1.399-0.31,2.859-0.31,4.26,0l90.13,20.09C3021.9,69.43,3025.08,73.4,3025.08,77.98z"/>
	<path d="M2982.95,115.48c3.63,4.01,3.319,10.2-0.69,13.82l-70.939,64.19c-1.801,1.63-4.15,2.52-6.561,2.52
		c-0.22,0-0.439-0.01-0.66-0.02c-2.649-0.18-5.1-1.42-6.819-3.44l-24.641-29.15c-3.479-4.13-2.97-10.3,1.16-13.79
		c4.12-3.49,10.3-2.97,13.79,1.15l18.101,21.42l63.439-57.39C2973.14,111.16,2979.33,111.47,2982.95,115.48z"/>
	<path d="M2898.32,434.361v67.85c0,5.41-4.38,9.79-9.78,9.79c-5.41,0-9.79-4.38-9.79-9.79v-67.85c0-12.841-4.28-25.54-12.06-35.75
		l-39.5-51.92c-1.94-2.551-4.771-4.181-7.95-4.58c-3.181-0.391-6.32,0.489-8.83,2.489c-5,3.971-5.92,11.311-2.08,16.4l16.58,21.59
		c3.29,4.29,2.49,10.43-1.8,13.72c-4.28,3.29-10.431,2.48-13.721-1.8l-16.529-21.52c-0.03-0.05-0.061-0.09-0.091-0.13
		l-20.479-26.681c-5.17-6.72-8.01-15.08-8.01-23.56v-88.28c0-7.24-5.891-13.14-13.141-13.14c-6.81,0-12.43,5.12-13.08,11.9
		l-10.47,110.45c-0.46,4.79,0.891,9.53,3.79,13.36l85.16,110.89c1.31,1.7,2.02,3.8,2.02,5.95v28.46c0,5.41-4.38,9.79-9.779,9.79
		c-5.41,0-9.79-4.38-9.79-9.79v-25.13l-83.17-108.3c-5.91-7.8-8.641-17.4-7.71-27.07l10.47-110.46c1.6-16.88,15.6-29.62,32.56-29.62
		c18.03,0,32.71,14.68,32.71,32.71v88.28c0,4.189,1.4,8.32,3.95,11.649l2.88,3.74c1.9-3.27,4.42-6.25,7.54-8.729
		c6.66-5.3,14.99-7.641,23.44-6.58c8.45,1.05,15.95,5.359,21.1,12.14l39.51,51.92C2892.62,400.361,2898.32,417.27,2898.32,434.361z"
		/>
	<path d="M2844.47,110.02c1.04,3.77-0.399,7.92-3.489,10.29c-3.28,2.53-7.94,2.68-11.391,0.38c-3.78-2.55-5.33-7.48-3.649-11.73
		c1.52-3.87,5.449-6.4,9.609-6.18C2839.75,103.01,2843.36,105.98,2844.47,110.02z"/>
</g>
<g id="XMLID_4_">
	<rect x="2037" y="441" fill="#751B47" width="16" height="48"/>
	<rect x="1973" y="441" fill="#751B47" width="16" height="48"/>
	<rect x="1909" y="441" fill="#751B47" width="16" height="48"/>
	<path d="M2101,377v128h-446.68l-32-176H1621c-8.82,0-16-7.18-16-16v-16c0-8.82,7.18-16,16-16h272c8.82,0,16,7.18,16,16v16
		c0,8.82-7.18,16-16,16h-1.32l-8.729,48H1949v-48h-13.77L1909,250.3V233h160v17.3l-26.23,78.7H2029v48H2101z M2085,489v-96h-204.96
		l-17.46,96H1893v-64h48v64h16v-64h48v64h16v-64h48v64H2085z M2053,489v-48h-16v48H2053z M2031.23,313l21.34-64H1925.43l21.34,64
		H1965v-48h48v48H2031.23z M2013,377v-48h-48v48H2013z M1997,313v-32h-16v32H1997z M1989,489v-48h-16v48H1989z M1925,489v-48h-16v48
		H1925z M1893.01,313l-0.01-16h-272v16H1893.01z M1862.33,401l13.09-72H1837v72H1862.33z M1846.32,489l13.1-72H1837v72H1846.32z
		 M1821,489v-72h-32v72H1821z M1821,401v-72h-32v72H1821z M1773,489v-72h-32v72H1773z M1773,401v-72h-32v72H1773z M1725,489v-72h-32
		v72H1725z M1725,401v-72h-32v72H1725z M1677,489v-72h-22.42l13.09,72H1677z M1677,401v-72h-38.41l13.09,72H1677z"/>
	<path d="M1989,61.04v16.29l-107.32,70.2l-30.489,83.84L1813,244.1V184l-9.08,5.17c-13.61,7.74-29.08,11.83-44.74,11.83
		c-24.18,0-46.91-9.42-64.01-26.52L1685,164.31v-9.01l-44.17-70.68l37.95-12.64l55.359,47.63l47.15-27.64L1711.02,40.7l36.99-24.65
		l98.3,37.81l64.33-37.72c7.98-4.67,17.07-7.14,26.32-7.14C1965.66,9,1989,32.34,1989,61.04z M1973,68.67v-7.63
		c0-19.87-16.17-36.04-36.04-36.04c-6.41,0-12.71,1.71-18.229,4.95L1701,157.69l5.49,5.48c14.069,14.08,32.79,21.83,52.689,21.83
		c12.891,0,25.63-3.37,36.83-9.74l16.99-9.67v-17.23l72-41.14v19.02L1973,68.67z M1838.81,218.63l30.19-83.85l-40,22.86v64.26
		L1838.81,218.63z M1796.35,83.14l32.311-18.94l-78.67-30.25l-11.01,7.35L1796.35,83.14z M1695.66,142.17l23.89-14l-44.33-38.15
		l-10.05,3.36L1695.66,142.17z"/>
	
		<rect x="1918.027" y="36.977" transform="matrix(-0.5152 -0.8571 0.8571 -0.5152 2879.6704 1718.9392)" width="15.996" height="15.996"/>
	<polygon points="1901.33,50.46 1909.57,64.18 1895.86,72.42 1887.62,58.7 	"/>
	<polygon fill="#1DA1DB" points="1893,297 1893.01,313 1621,313 1621,297 	"/>
	
		<rect x="1863.177" y="69.917" transform="matrix(-0.5152 -0.8571 0.8571 -0.5152 2768.332 1721.8367)" width="15.996" height="15.996"/>
	<polygon fill="#C5D700" points="1719.55,128.17 1695.66,142.17 1665.17,93.38 1675.22,90.02 	"/>
</g>
<g>
	<g id="XMLID_5_">
		<path d="M2611,159v300.54c0,22.87-18.59,41.46-41.45,41.46h-373.09c-22.87,0-41.46-18.59-41.46-41.46V159
			c0-5.73,4.64-10.36,10.36-10.36h93.279V96.82c0-2.76,1.091-5.39,3.03-7.33l41.46-41.45c1.94-1.95,4.57-3.04,7.33-3.04h145.08
			c2.76,0,5.39,1.09,7.33,3.04l41.46,41.45c1.939,1.94,3.03,4.57,3.03,7.33v51.82h93.279C2606.37,148.64,2611,153.27,2611,159z
			 M2590.27,459.55V169.36H2175.73v290.19c0,11.42,9.3,20.72,20.729,20.72h373.09C2580.97,480.27,2590.27,470.97,2590.27,459.55z
			 M2486.64,148.64v-47.53l-20.729-20.73v68.26H2486.64z M2445.18,148.64v-41.46H2320.82v41.46H2445.18z M2445.18,86.45V65.73
			H2320.82v20.72H2445.18z M2300.09,148.64V80.38l-20.729,20.73v47.53H2300.09z"/>
		<path d="M2505.14,382.22c3.98,10.05,1.9,19.851-4.649,26.38l-8.4,9.19c-2.01,2.19-5.229,3.21-7.84,3.36
			c-2.98-0.061-5.78-1.4-7.71-3.67l-58.25-68.711c-3.2,2.7-6.54,5.53-9.96,8.431c-13.39,11.35-28.26,23.96-40.5,33.22l7.87,15.72
			c2.01,3.99,1.229,8.82-1.94,11.98l-17.71,17.67c-1.95,1.95-4.59,3.03-7.319,3.03c-0.341,0-0.681-0.021-1.021-0.051
			c-3.09-0.31-5.87-1.979-7.6-4.56l-22.45-33.61l-33.67-22.42c-2.59-1.72-4.271-4.51-4.58-7.6c-0.3-3.09,0.79-6.16,3-8.36
			l17.7-17.649c3.159-3.141,7.97-3.92,11.939-1.94l15.79,7.88c9.311-12.26,21.98-27.149,33.4-40.56c2.859-3.36,5.67-6.65,8.319-9.79
			l-68.819-58.13c-2.221-1.87-3.54-4.58-3.67-7.49c-0.12-2.89,0.979-5.71,3.04-7.76l9.14-9.12c6.54-6.53,16.34-8.6,24.96-5.28
			l77.98,44.33c20.71-17.75,53.109-32.76,67.79-18.14c2.689,2.68,5.909,7.64,5.92,15.96c0,15.96-11.62,37.09-24.101,51.71
			L2505.14,382.22z M2485.53,394.26c1.069-1.08,1.31-2.2,0.93-3.189l-46.42-81.15c-2.31-4.06-1.62-9.16,1.69-12.47
			c16.8-16.771,25.35-39.65,23.229-44.71c-4.16-1.39-27.16,7.26-44,24.04c-3.29,3.319-8.41,3.979-12.44,1.67l-83.159-47.39
			c0.42,0.28-0.71,0.52-1.46,1.26l-1.16,1.16l68.09,57.51c4.35,3.66,4.92,10.149,1.29,14.529c-4.48,5.4-9.68,11.5-15.101,17.87
			c-13.47,15.83-28.739,33.78-37.51,46.24c-2.939,4.2-8.5,5.63-13.1,3.311l-16.94-8.44l-3.46,3.45l24.86,16.55
			c1.14,0.75,2.11,1.73,2.87,2.86l16.6,24.85l3.48-3.47l-8.45-16.86c-2.311-4.6-0.89-10.2,3.32-13.14
			c12.47-8.721,30.409-23.94,46.239-37.36c6.431-5.439,12.57-10.64,18.021-15.14c4.39-3.62,10.85-3.021,14.5,1.29l57.3,67.59
			L2485.53,394.26z"/>
		<path fill="#1DA1DB" d="M2486.46,391.071c0.38,0.989,0.14,2.109-0.93,3.189l-0.78,0.86l-57.3-67.59
			c-3.65-4.311-10.11-4.91-14.5-1.29c-5.45,4.5-11.59,9.7-18.021,15.14c-15.83,13.42-33.77,28.64-46.239,37.36
			c-4.21,2.939-5.631,8.54-3.32,13.14l8.45,16.86l-3.48,3.47l-16.6-24.85c-0.76-1.13-1.73-2.11-2.87-2.86l-24.86-16.55l3.46-3.45
			l16.94,8.44c4.6,2.319,10.16,0.89,13.1-3.311c8.771-12.46,24.04-30.41,37.51-46.24c5.421-6.37,10.62-12.47,15.101-17.87
			c3.63-4.38,3.06-10.869-1.29-14.529l-68.09-57.51l1.16-1.16c0.75-0.74,1.88-0.98,1.46-1.26l83.159,47.39
			c4.03,2.31,9.15,1.649,12.44-1.67c16.84-16.78,39.84-25.43,44-24.04c2.12,5.06-6.43,27.939-23.229,44.71
			c-3.311,3.31-4,8.41-1.69,12.47L2486.46,391.071z"/>
	</g>
</g>
<g id="XMLID_2_">
	<polygon fill="#751B47" points="742,213.94 742,297 694,297 694,213.94 718,201.94 	"/>
	<rect x="934" y="145" fill="#C5D700" width="32" height="304"/>
	<rect x="614" y="145" fill="#C5D700" width="32" height="304"/>
	<path d="M1038,161v272c-0.02,17.66-14.34,31.98-32,32H574c-17.66-0.02-31.98-14.34-32-32V161c0.02-17.66,14.34-31.98,32-32h120V73
		c0.02-13.25,10.75-23.98,24-24h144c13.25,0.02,23.98,10.75,24,24v56h120C1023.66,129.02,1037.98,143.34,1038,161z M1022,433V161
		c-0.01-8.83-7.17-15.99-16-16h-24v304h24C1014.83,448.99,1021.99,441.83,1022,433z M966,449V145h-32v304H966z M918,449V145H726
		v43.06l27.58,13.78c2.71,1.36,4.42,4.13,4.42,7.16v96c0,4.42-3.58,8-8,8h-64c-4.42,0-8-3.58-8-8v-96c0-3.03,1.71-5.8,4.42-7.16
		L710,188.06V145h-48v304H918z M870,129V73c-0.01-4.42-3.58-7.99-8-8H718c-4.42,0.01-7.99,3.58-8,8v56h16V89c0-4.42,3.58-8,8-8h112
		c4.42,0,8,3.58,8,8v40H870z M838,129V97h-96v32H838z M742,297v-83.06l-24-12l-24,12V297H742z M646,449V145h-32v304H646z M598,449
		V145h-24c-8.83,0.01-15.99,7.17-16,16v272c0.01,8.83,7.17,15.99,16,16H598z"/>
</g>
<g id="XMLID_3_">
	<path fill="#C5D700" d="M1543,300v144c0,8.84-7.16,16-16,16s-16-7.16-16-16V300H1543z"/>
	<path fill="#751B47" d="M1151,300v144c0,8.84-7.16,16-16,16s-16-7.16-16-16V300H1151z"/>
	<path fill="#1DA1DB" d="M1471,300h22.37c-5.53,40.48-25.01,77.77-55.09,105.42c-71.48,65.87-182.83,61.33-248.71-10.15
		c-8.601-9.329-16.17-19.569-22.57-30.539V292c0-4.42-3.58-8-8-8v-80.37c19.2-2.74,33.09-19.75,31.93-39.12l-0.55-8.64
		c66.33-71.03,177.68-74.84,248.72-8.51c8.891,8.3,16.9,17.51,23.9,27.47V292C1463,296.42,1466.58,300,1471,300z M1319,404
		c70.69,0,128-57.31,128-128c-0.08-70.66-57.34-127.92-128-128c-70.69,0-128,57.31-128,128C1191,346.691,1248.31,404,1319,404z"/>
	<path d="M1559,68v376c0,17.67-14.33,32-32,32s-32-14.33-32-32v-91.14c-12.92,29.529-33.06,55.33-58.57,75.029
		c-83.96,64.841-204.59,49.351-269.43-34.609V444c0,17.67-14.33,32-32,32s-32-14.33-32-32V292c0-4.42,3.58-8,8-8v-80.37
		c-19.19-2.74-33.07-19.73-31.94-39.08l6.19-97.06c0.31-4.35,4.06-7.65,8.42-7.41c4.41,0.24,7.79,4.02,7.54,8.43l-5.08,79.76
		c4.12,2.97,15.12,6.55,30.87,7.49V68c0-4.42,3.58-8,8-8s8,3.58,8,8v87.77c16.71-0.98,27.18-4.88,30.87-7.47l-5.08-79.79
		c-0.24-4.36,3.05-8.11,7.41-8.42c4.399-0.32,8.24,2.99,8.55,7.4l4.28,67.21c1-0.92,2.01-1.82,3.02-2.72
		C1271.57,61.86,1392.88,69.48,1463,149v-17c0.04-39.75,32.25-71.96,72-72h16C1555.42,60,1559,63.58,1559,68z M1543,444V300h-32v144
		c0,8.84,7.16,16,16,16S1543,452.84,1543,444z M1543,284V76h-8c-30.91,0.03-55.96,25.09-56,56v152H1543z M1493.37,300H1471
		c-4.42,0-8-3.58-8-8V174.83c-7-9.96-15.01-19.17-23.9-27.47c-71.04-66.33-182.39-62.52-248.72,8.51l0.55,8.64
		c1.16,19.37-12.729,36.38-31.93,39.12V284c4.42,0,8,3.58,8,8v72.73c6.4,10.97,13.97,21.21,22.57,30.539
		c65.88,71.48,177.229,76.021,248.71,10.15C1468.36,377.77,1487.84,340.481,1493.37,300z M1154.87,187.97
		c11.72-0.62,20.72-10.63,20.09-22.35c-10.66,4.34-25.34,6.38-39.96,6.38c-17.8,0-31-2.73-39.96-6.42
		c-0.03,0.39-0.04,0.78-0.04,1.17c0,11.73,9.52,21.25,21.26,21.25h37.48C1154.12,188,1154.49,187.99,1154.87,187.97z M1151,444V300
		h-32v144c0,8.84,7.16,16,16,16S1151,452.84,1151,444z M1143,284v-80h-16v80H1143z"/>
	<path d="M1447,276c0,70.69-57.31,128-128,128s-128-57.31-128-128c0-70.69,57.31-128,128-128
		C1389.66,148.08,1446.92,205.34,1447,276z M1431,276c0-61.86-50.14-112-112-112s-112,50.14-112,112c0,61.86,50.14,112,112,112
		C1380.83,387.93,1430.93,337.83,1431,276z"/>
</g>
</svg>
